# Blender v2.79 (sub 0) OBJ File: 'fence.blend'
# www.blender.org
mtllib roofs.mtl
o Plane.002
v -154.979568 0.827354 12.905136
v -154.979568 0.454132 12.905136
v -154.979584 0.454140 50.905136
v -154.979584 0.827362 50.905136
v -92.979584 0.454140 50.905144
v -92.979584 0.827362 50.905144
v -123.979576 7.254278 31.905140
v -92.979576 0.827354 12.905146
v -92.979576 0.454132 12.905146
vt 0.000000 0.000000
vt 0.000000 1.000000
vt 1.000000 1.000000
vt 1.000000 0.000000
vt 0.000000 0.000000
vt 0.000000 1.000000
vt 1.000000 1.000000
vt 1.000000 0.000000
vt 1.000000 1.000000
vt 1.000000 0.000000
vt 0.000000 0.000000
vt 1.000000 0.000000
vt 0.000000 0.000000
vt 1.000000 1.000000
vt 1.000000 0.000000
vt 0.000000 0.000000
vt 0.000000 1.000000
vt 0.000000 1.000000
vt 1.000000 1.000000
vn -1.0000 0.0000 -0.0000
vn -0.0000 0.0000 1.0000
vn -0.2030 0.9792 -0.0000
vn -0.0000 0.9473 0.3204
vn 0.0000 0.9473 -0.3204
vn 0.2030 0.9792 -0.0000
vn -0.0000 -1.0000 0.0000
vn 0.0000 0.0000 -1.0000
vn 1.0000 0.0000 0.0000
usemtl Material.007
s 1
f 1/1/1 2/2/1 3/3/1 4/4/1
f 4/5/2 3/6/2 5/7/2 6/8/2
f 4/5/3 7/9/3 1/10/3
f 6/11/4 7/9/4 4/4/4
f 1/1/5 7/9/5 8/12/5
f 8/13/6 7/9/6 6/8/6
f 2/14/7 9/15/7 5/16/7 3/6/7
f 8/13/8 9/17/8 2/14/8 1/10/8
f 6/11/9 5/18/9 9/19/9 8/12/9
o Plane.001
v 146.820145 0.827354 1.757519
v 146.820145 0.454132 1.757519
v 108.820145 0.454140 1.757519
v 108.820145 0.827362 1.757519
v 108.820137 0.454140 63.757515
v 108.820137 0.827362 63.757515
v 127.820145 7.254278 32.757515
v 146.820145 0.827354 63.757519
v 146.820145 0.454132 63.757519
vt 0.000000 0.000000
vt 0.000000 1.000000
vt 1.000000 1.000000
vt 1.000000 0.000000
vt 0.000000 0.000000
vt 0.000000 1.000000
vt 1.000000 1.000000
vt 1.000000 0.000000
vt 1.000000 1.000000
vt 1.000000 0.000000
vt 0.000000 0.000000
vt 1.000000 0.000000
vt 0.000000 0.000000
vt 1.000000 1.000000
vt 1.000000 0.000000
vt 0.000000 0.000000
vt 0.000000 1.000000
vt 0.000000 1.000000
vt 1.000000 1.000000
vn 0.0000 0.0000 -1.0000
vn -1.0000 0.0000 -0.0000
vn 0.0000 0.9792 -0.2030
vn -0.3204 0.9473 -0.0000
vn 0.3204 0.9473 0.0000
vn 0.0000 0.9792 0.2030
vn -0.0000 -1.0000 0.0000
vn 1.0000 0.0000 0.0000
vn -0.0000 0.0000 1.0000
usemtl Material.007
s 1
f 10/20/10 11/21/10 12/22/10 13/23/10
f 13/24/11 12/25/11 14/26/11 15/27/11
f 13/24/12 16/28/12 10/29/12
f 15/30/13 16/28/13 13/23/13
f 10/20/14 16/28/14 17/31/14
f 17/32/15 16/28/15 15/27/15
f 11/33/16 18/34/16 14/35/16 12/25/16
f 17/32/17 18/36/17 11/33/17 10/29/17
f 15/30/18 14/37/18 18/38/18 17/31/18
o Plane
v 46.014938 0.827354 48.166519
v 46.014938 0.454132 48.166519
v 46.014938 0.454140 10.166517
v 46.014938 0.827362 10.166517
v -15.985060 0.454140 10.166517
v -15.985060 0.827362 10.166517
v 15.014940 7.254278 29.166517
v -15.985060 0.827354 48.166519
v -15.985060 0.454132 48.166519
vt 0.000000 0.000000
vt 0.000000 1.000000
vt 1.000000 1.000000
vt 1.000000 0.000000
vt 0.000000 0.000000
vt 0.000000 1.000000
vt 1.000000 1.000000
vt 1.000000 0.000000
vt 1.000000 1.000000
vt 1.000000 0.000000
vt 0.000000 0.000000
vt 1.000000 0.000000
vt 0.000000 0.000000
vt 1.000000 1.000000
vt 1.000000 0.000000
vt 0.000000 0.000000
vt 0.000000 1.000000
vt 0.000000 1.000000
vt 1.000000 1.000000
vn 1.0000 0.0000 0.0000
vn 0.0000 0.0000 -1.0000
vn 0.2030 0.9792 0.0000
vn 0.0000 0.9473 -0.3204
vn 0.0000 0.9473 0.3204
vn -0.2030 0.9792 0.0000
vn 0.0000 -1.0000 -0.0000
vn 0.0000 0.0000 1.0000
vn -1.0000 0.0000 0.0000
usemtl Material.007
s 1
f 19/39/19 20/40/19 21/41/19 22/42/19
f 22/43/20 21/44/20 23/45/20 24/46/20
f 22/43/21 25/47/21 19/48/21
f 24/49/22 25/47/22 22/42/22
f 19/39/23 25/47/23 26/50/23
f 26/51/24 25/47/24 24/46/24
f 20/52/25 27/53/25 23/54/25 21/44/25
f 26/51/26 27/55/26 20/52/26 19/48/26
f 24/49/27 23/56/27 27/57/27 26/50/27
